# MagicaVoxel @ Ephtracy

# group
o 

# material
mtllib brick_wall_doorway.mtl
usemtl palette

# normals
vn -1 0 0
vn 1 0 0
vn 0 0 1
vn 0 0 -1
vn 0 -1 0
vn 0 1 0

# texcoords
vt 0.158203 0.5
vt 0.412109 0.5

# verts
v 0 6 0
v 0 6 -0.5
v 0 6.3 0
v 0 6.3 -0.1
v 0 6.3 -0.4
v 0 6.3 -0.5
v 0 6.4 0
v 0 6.4 -0.1
v 0 6.4 -0.4
v 0 6.4 -0.5
v 0 6.7 0
v 0 6.7 -0.1
v 0 6.7 -0.4
v 0 6.7 -0.5
v 0 6.8 0
v 0 6.8 -0.1
v 0 6.8 -0.4
v 0 6.8 -0.5
v 0 7.1 0
v 0 7.1 -0.5
v 0.6 6.4 0
v 0.6 6.4 -0.1
v 0.6 6.4 -0.4
v 0.6 6.4 -0.5
v 0.6 6.7 0
v 0.6 6.7 -0.1
v 0.6 6.7 -0.4
v 0.6 6.7 -0.5
v 1.1 6 0
v 1.1 6 -0.1
v 1.1 6 -0.4
v 1.1 6 -0.5
v 1.1 6.3 0
v 1.1 6.3 -0.1
v 1.1 6.3 -0.4
v 1.1 6.3 -0.5
v 1.1 6.8 0
v 1.1 6.8 -0.1
v 1.1 6.8 -0.4
v 1.1 6.8 -0.5
v 1.1 7.1 0
v 1.1 7.1 -0.1
v 1.1 7.1 -0.4
v 1.1 7.1 -0.5
v 1.7 6.4 0
v 1.7 6.4 -0.1
v 1.7 6.4 -0.4
v 1.7 6.4 -0.5
v 1.7 6.7 0
v 1.7 6.7 -0.1
v 1.7 6.7 -0.4
v 1.7 6.7 -0.5
v 0.5 6.4 0
v 0.5 6.4 -0.1
v 0.5 6.4 -0.4
v 0.5 6.4 -0.5
v 0.5 6.7 0
v 0.5 6.7 -0.1
v 0.5 6.7 -0.4
v 0.5 6.7 -0.5
v 1 6 0
v 1 6 -0.1
v 1 6 -0.4
v 1 6 -0.5
v 1 6.3 0
v 1 6.3 -0.1
v 1 6.3 -0.4
v 1 6.3 -0.5
v 1 6.8 0
v 1 6.8 -0.1
v 1 6.8 -0.4
v 1 6.8 -0.5
v 1 7.1 0
v 1 7.1 -0.1
v 1 7.1 -0.4
v 1 7.1 -0.5
v 1.6 6.4 0
v 1.6 6.4 -0.1
v 1.6 6.4 -0.4
v 1.6 6.4 -0.5
v 1.6 6.7 0
v 1.6 6.7 -0.1
v 1.6 6.7 -0.4
v 1.6 6.7 -0.5
v 2.1 6 0
v 2.1 6 -0.1
v 2.1 6 -0.4
v 2.1 6 -0.5
v 2.1 6.3 0
v 2.1 6.3 -0.1
v 2.1 6.3 -0.4
v 2.1 6.3 -0.5
v 2.1 6.8 0
v 2.1 6.8 -0.1
v 2.1 6.8 -0.4
v 2.1 6.8 -0.5
v 2.1 7.1 0
v 2.1 7.1 -0.1
v 2.1 7.1 -0.4
v 2.1 7.1 -0.5
v 2.2 6 -0.1
v 2.2 6 -0.4
v 2.2 6.4 0
v 2.2 6.4 -0.1
v 2.2 6.4 -0.4
v 2.2 6.4 -0.5
v 2.2 6.7 0
v 2.2 6.7 -0.1
v 2.2 6.7 -0.4
v 2.2 6.7 -0.5
v 2.2 7.1 -0.1
v 2.2 7.1 -0.4
v 0 6 0
v 0 6.3 0
v 0 6.4 0
v 0 6.7 0
v 0 6.8 0
v 0 7.1 0
v 0.5 6.4 0
v 0.5 6.7 0
v 0.6 6.4 0
v 0.6 6.7 0
v 1 6 0
v 1 6.3 0
v 1 6.8 0
v 1 7.1 0
v 1.1 6 0
v 1.1 6.3 0
v 1.1 6.8 0
v 1.1 7.1 0
v 1.6 6.4 0
v 1.6 6.7 0
v 1.7 6.4 0
v 1.7 6.7 0
v 2.1 6 0
v 2.1 6.3 0
v 2.1 6.8 0
v 2.1 7.1 0
v 2.2 6.4 0
v 2.2 6.7 0
v 0 6.3 -0.1
v 0 6.4 -0.1
v 0 6.7 -0.1
v 0 6.8 -0.1
v 0.5 6.4 -0.1
v 0.5 6.7 -0.1
v 0.6 6.4 -0.1
v 0.6 6.7 -0.1
v 1 6 -0.1
v 1 6.3 -0.1
v 1 6.8 -0.1
v 1 7.1 -0.1
v 1.1 6 -0.1
v 1.1 6.3 -0.1
v 1.1 6.8 -0.1
v 1.1 7.1 -0.1
v 1.6 6.4 -0.1
v 1.6 6.7 -0.1
v 1.7 6.4 -0.1
v 1.7 6.7 -0.1
v 2.1 6 -0.1
v 2.1 6.3 -0.1
v 2.1 6.8 -0.1
v 2.1 7.1 -0.1
v 2.2 6 -0.1
v 2.2 6.4 -0.1
v 2.2 6.7 -0.1
v 2.2 7.1 -0.1
v 0 6.3 -0.4
v 0 6.4 -0.4
v 0 6.7 -0.4
v 0 6.8 -0.4
v 0.5 6.4 -0.4
v 0.5 6.7 -0.4
v 0.6 6.4 -0.4
v 0.6 6.7 -0.4
v 1 6 -0.4
v 1 6.3 -0.4
v 1 6.8 -0.4
v 1 7.1 -0.4
v 1.1 6 -0.4
v 1.1 6.3 -0.4
v 1.1 6.8 -0.4
v 1.1 7.1 -0.4
v 1.6 6.4 -0.4
v 1.6 6.7 -0.4
v 1.7 6.4 -0.4
v 1.7 6.7 -0.4
v 2.1 6 -0.4
v 2.1 6.3 -0.4
v 2.1 6.8 -0.4
v 2.1 7.1 -0.4
v 2.2 6 -0.4
v 2.2 6.4 -0.4
v 2.2 6.7 -0.4
v 2.2 7.1 -0.4
v 0 6 -0.5
v 0 6.3 -0.5
v 0 6.4 -0.5
v 0 6.7 -0.5
v 0 6.8 -0.5
v 0 7.1 -0.5
v 0.5 6.4 -0.5
v 0.5 6.7 -0.5
v 0.6 6.4 -0.5
v 0.6 6.7 -0.5
v 1 6 -0.5
v 1 6.3 -0.5
v 1 6.8 -0.5
v 1 7.1 -0.5
v 1.1 6 -0.5
v 1.1 6.3 -0.5
v 1.1 6.8 -0.5
v 1.1 7.1 -0.5
v 1.6 6.4 -0.5
v 1.6 6.7 -0.5
v 1.7 6.4 -0.5
v 1.7 6.7 -0.5
v 2.1 6 -0.5
v 2.1 6.3 -0.5
v 2.1 6.8 -0.5
v 2.1 7.1 -0.5
v 2.2 6.4 -0.5
v 2.2 6.7 -0.5
v 0 6 0
v 1 6 0
v 1.1 6 0
v 2.1 6 0
v 1 6 -0.1
v 1.1 6 -0.1
v 2.1 6 -0.1
v 2.2 6 -0.1
v 1 6 -0.4
v 1.1 6 -0.4
v 2.1 6 -0.4
v 2.2 6 -0.4
v 0 6 -0.5
v 1 6 -0.5
v 1.1 6 -0.5
v 2.1 6 -0.5
v 0 6.4 0
v 0.5 6.4 0
v 0.6 6.4 0
v 1.6 6.4 0
v 1.7 6.4 0
v 2.2 6.4 0
v 0 6.4 -0.1
v 0.5 6.4 -0.1
v 0.6 6.4 -0.1
v 1.6 6.4 -0.1
v 1.7 6.4 -0.1
v 2.2 6.4 -0.1
v 0 6.4 -0.4
v 0.5 6.4 -0.4
v 0.6 6.4 -0.4
v 1.6 6.4 -0.4
v 1.7 6.4 -0.4
v 2.2 6.4 -0.4
v 0 6.4 -0.5
v 0.5 6.4 -0.5
v 0.6 6.4 -0.5
v 1.6 6.4 -0.5
v 1.7 6.4 -0.5
v 2.2 6.4 -0.5
v 0 6.8 0
v 1 6.8 0
v 1.1 6.8 0
v 2.1 6.8 0
v 0 6.8 -0.1
v 1 6.8 -0.1
v 1.1 6.8 -0.1
v 2.1 6.8 -0.1
v 0 6.8 -0.4
v 1 6.8 -0.4
v 1.1 6.8 -0.4
v 2.1 6.8 -0.4
v 0 6.8 -0.5
v 1 6.8 -0.5
v 1.1 6.8 -0.5
v 2.1 6.8 -0.5
v 0 6.3 0
v 1 6.3 0
v 1.1 6.3 0
v 2.1 6.3 0
v 0 6.3 -0.1
v 1 6.3 -0.1
v 1.1 6.3 -0.1
v 2.1 6.3 -0.1
v 0 6.3 -0.4
v 1 6.3 -0.4
v 1.1 6.3 -0.4
v 2.1 6.3 -0.4
v 0 6.3 -0.5
v 1 6.3 -0.5
v 1.1 6.3 -0.5
v 2.1 6.3 -0.5
v 0 6.7 0
v 0.5 6.7 0
v 0.6 6.7 0
v 1.6 6.7 0
v 1.7 6.7 0
v 2.2 6.7 0
v 0 6.7 -0.1
v 0.5 6.7 -0.1
v 0.6 6.7 -0.1
v 1.6 6.7 -0.1
v 1.7 6.7 -0.1
v 2.2 6.7 -0.1
v 0 6.7 -0.4
v 0.5 6.7 -0.4
v 0.6 6.7 -0.4
v 1.6 6.7 -0.4
v 1.7 6.7 -0.4
v 2.2 6.7 -0.4
v 0 6.7 -0.5
v 0.5 6.7 -0.5
v 0.6 6.7 -0.5
v 1.6 6.7 -0.5
v 1.7 6.7 -0.5
v 2.2 6.7 -0.5
v 0 7.1 0
v 1 7.1 0
v 1.1 7.1 0
v 2.1 7.1 0
v 1 7.1 -0.1
v 1.1 7.1 -0.1
v 2.1 7.1 -0.1
v 2.2 7.1 -0.1
v 1 7.1 -0.4
v 1.1 7.1 -0.4
v 2.1 7.1 -0.4
v 2.2 7.1 -0.4
v 0 7.1 -0.5
v 1 7.1 -0.5
v 1.1 7.1 -0.5
v 2.1 7.1 -0.5

# faces
f 3/1/1 2/1/1 1/1/1
f 4/1/1 2/1/1 3/1/1
f 5/1/1 2/1/1 4/1/1
f 6/1/1 2/1/1 5/1/1
f 8/2/1 5/2/1 4/2/1
f 9/2/1 5/2/1 8/2/1
f 11/1/1 8/1/1 7/1/1
f 11/1/1 10/1/1 9/1/1
f 11/1/1 9/1/1 8/1/1
f 12/1/1 10/1/1 11/1/1
f 13/1/1 10/1/1 12/1/1
f 14/1/1 10/1/1 13/1/1
f 16/2/1 13/2/1 12/2/1
f 17/2/1 13/2/1 16/2/1
f 19/1/1 16/1/1 15/1/1
f 19/1/1 18/1/1 17/1/1
f 19/1/1 17/1/1 16/1/1
f 20/1/1 18/1/1 19/1/1
f 25/1/1 22/1/1 21/1/1
f 26/1/1 22/1/1 25/1/1
f 27/1/1 24/1/1 23/1/1
f 28/1/1 24/1/1 27/1/1
f 33/1/1 30/1/1 29/1/1
f 34/1/1 30/1/1 33/1/1
f 35/1/1 32/1/1 31/1/1
f 36/1/1 32/1/1 35/1/1
f 41/1/1 38/1/1 37/1/1
f 42/1/1 38/1/1 41/1/1
f 43/1/1 40/1/1 39/1/1
f 44/1/1 40/1/1 43/1/1
f 49/1/1 46/1/1 45/1/1
f 50/1/1 46/1/1 49/1/1
f 51/1/1 48/1/1 47/1/1
f 52/1/1 48/1/1 51/1/1
f 53/1/2 54/1/2 57/1/2
f 57/1/2 54/1/2 58/1/2
f 55/1/2 56/1/2 59/1/2
f 59/1/2 56/1/2 60/1/2
f 61/1/2 62/1/2 65/1/2
f 65/1/2 62/1/2 66/1/2
f 63/1/2 64/1/2 67/1/2
f 67/1/2 64/1/2 68/1/2
f 69/1/2 70/1/2 73/1/2
f 73/1/2 70/1/2 74/1/2
f 71/1/2 72/1/2 75/1/2
f 75/1/2 72/1/2 76/1/2
f 77/1/2 78/1/2 81/1/2
f 81/1/2 78/1/2 82/1/2
f 79/1/2 80/1/2 83/1/2
f 83/1/2 80/1/2 84/1/2
f 85/1/2 86/1/2 89/1/2
f 89/1/2 86/1/2 90/1/2
f 87/1/2 88/1/2 91/1/2
f 91/1/2 88/1/2 92/1/2
f 93/1/2 94/1/2 97/1/2
f 97/1/2 94/1/2 98/1/2
f 95/1/2 96/1/2 99/1/2
f 99/1/2 96/1/2 100/1/2
f 101/2/2 102/2/2 104/2/2
f 104/2/2 102/2/2 105/2/2
f 103/1/2 104/1/2 107/1/2
f 105/1/2 106/1/2 107/1/2
f 104/1/2 105/1/2 107/1/2
f 107/1/2 106/1/2 108/1/2
f 108/1/2 106/1/2 109/1/2
f 109/1/2 106/1/2 110/1/2
f 108/2/2 109/2/2 111/2/2
f 111/2/2 109/2/2 112/2/2
f 119/1/3 116/1/3 115/1/3
f 120/1/3 116/1/3 119/1/3
f 123/1/3 114/1/3 113/1/3
f 124/1/3 114/1/3 123/1/3
f 125/1/3 118/1/3 117/1/3
f 126/1/3 118/1/3 125/1/3
f 131/1/3 122/1/3 121/1/3
f 132/1/3 122/1/3 131/1/3
f 135/1/3 128/1/3 127/1/3
f 136/1/3 128/1/3 135/1/3
f 137/1/3 130/1/3 129/1/3
f 138/1/3 130/1/3 137/1/3
f 139/1/3 134/1/3 133/1/3
f 140/1/3 134/1/3 139/1/3
f 145/2/3 142/2/3 141/2/3
f 146/2/3 144/2/3 143/2/3
f 147/2/3 145/2/3 141/2/3
f 147/2/3 146/2/3 145/2/3
f 148/2/3 144/2/3 146/2/3
f 148/2/3 146/2/3 147/2/3
f 150/2/3 147/2/3 141/2/3
f 151/2/3 144/2/3 148/2/3
f 153/2/3 150/2/3 149/2/3
f 154/2/3 147/2/3 150/2/3
f 154/2/3 150/2/3 153/2/3
f 155/2/3 152/2/3 151/2/3
f 155/2/3 151/2/3 148/2/3
f 156/2/3 152/2/3 155/2/3
f 157/2/3 147/2/3 154/2/3
f 158/2/3 155/2/3 148/2/3
f 159/2/3 157/2/3 154/2/3
f 159/2/3 158/2/3 157/2/3
f 160/2/3 155/2/3 158/2/3
f 160/2/3 158/2/3 159/2/3
f 162/2/3 159/2/3 154/2/3
f 163/2/3 155/2/3 160/2/3
f 165/2/3 162/2/3 161/2/3
f 166/2/3 159/2/3 162/2/3
f 166/2/3 162/2/3 165/2/3
f 167/2/3 164/2/3 163/2/3
f 167/2/3 163/2/3 160/2/3
f 168/2/3 164/2/3 167/2/3
f 169/2/4 170/2/4 173/2/4
f 171/2/4 172/2/4 174/2/4
f 169/2/4 173/2/4 175/2/4
f 173/2/4 174/2/4 175/2/4
f 174/2/4 172/2/4 176/2/4
f 175/2/4 174/2/4 176/2/4
f 169/2/4 175/2/4 178/2/4
f 176/2/4 172/2/4 179/2/4
f 177/2/4 178/2/4 181/2/4
f 178/2/4 175/2/4 182/2/4
f 181/2/4 178/2/4 182/2/4
f 179/2/4 180/2/4 183/2/4
f 176/2/4 179/2/4 183/2/4
f 183/2/4 180/2/4 184/2/4
f 182/2/4 175/2/4 185/2/4
f 176/2/4 183/2/4 186/2/4
f 182/2/4 185/2/4 187/2/4
f 185/2/4 186/2/4 187/2/4
f 186/2/4 183/2/4 188/2/4
f 187/2/4 186/2/4 188/2/4
f 182/2/4 187/2/4 190/2/4
f 188/2/4 183/2/4 191/2/4
f 189/2/4 190/2/4 193/2/4
f 190/2/4 187/2/4 194/2/4
f 193/2/4 190/2/4 194/2/4
f 191/2/4 192/2/4 195/2/4
f 188/2/4 191/2/4 195/2/4
f 195/2/4 192/2/4 196/2/4
f 199/1/4 200/1/4 203/1/4
f 203/1/4 200/1/4 204/1/4
f 197/1/4 198/1/4 207/1/4
f 207/1/4 198/1/4 208/1/4
f 201/1/4 202/1/4 209/1/4
f 209/1/4 202/1/4 210/1/4
f 205/1/4 206/1/4 215/1/4
f 215/1/4 206/1/4 216/1/4
f 211/1/4 212/1/4 219/1/4
f 219/1/4 212/1/4 220/1/4
f 213/1/4 214/1/4 221/1/4
f 221/1/4 214/1/4 222/1/4
f 217/1/4 218/1/4 223/1/4
f 223/1/4 218/1/4 224/1/4
f 229/1/5 226/1/5 225/1/5
f 230/1/5 228/1/5 227/1/5
f 231/1/5 228/1/5 230/1/5
f 233/1/5 229/1/5 225/1/5
f 233/2/5 230/2/5 229/2/5
f 234/1/5 231/1/5 230/1/5
f 234/2/5 230/2/5 233/2/5
f 235/2/5 232/2/5 231/2/5
f 235/1/5 231/1/5 234/1/5
f 236/2/5 232/2/5 235/2/5
f 237/1/5 233/1/5 225/1/5
f 238/1/5 233/1/5 237/1/5
f 239/1/5 235/1/5 234/1/5
f 240/1/5 235/1/5 239/1/5
f 247/1/5 242/1/5 241/1/5
f 248/1/5 242/1/5 247/1/5
f 249/1/5 244/1/5 243/1/5
f 250/1/5 244/1/5 249/1/5
f 251/1/5 246/1/5 245/1/5
f 252/1/5 246/1/5 251/1/5
f 259/1/5 254/1/5 253/1/5
f 260/1/5 254/1/5 259/1/5
f 261/1/5 256/1/5 255/1/5
f 262/1/5 256/1/5 261/1/5
f 263/1/5 258/1/5 257/1/5
f 264/1/5 258/1/5 263/1/5
f 269/1/5 266/1/5 265/1/5
f 270/1/5 266/1/5 269/1/5
f 271/1/5 268/1/5 267/1/5
f 272/1/5 268/1/5 271/1/5
f 277/1/5 274/1/5 273/1/5
f 278/1/5 274/1/5 277/1/5
f 279/1/5 276/1/5 275/1/5
f 280/1/5 276/1/5 279/1/5
f 281/1/6 282/1/6 285/1/6
f 285/1/6 282/1/6 286/1/6
f 283/1/6 284/1/6 287/1/6
f 287/1/6 284/1/6 288/1/6
f 289/1/6 290/1/6 293/1/6
f 293/1/6 290/1/6 294/1/6
f 291/1/6 292/1/6 295/1/6
f 295/1/6 292/1/6 296/1/6
f 297/1/6 298/1/6 303/1/6
f 303/1/6 298/1/6 304/1/6
f 299/1/6 300/1/6 305/1/6
f 305/1/6 300/1/6 306/1/6
f 301/1/6 302/1/6 307/1/6
f 307/1/6 302/1/6 308/1/6
f 309/1/6 310/1/6 315/1/6
f 315/1/6 310/1/6 316/1/6
f 311/1/6 312/1/6 317/1/6
f 317/1/6 312/1/6 318/1/6
f 313/1/6 314/1/6 319/1/6
f 319/1/6 314/1/6 320/1/6
f 321/1/6 322/1/6 325/1/6
f 323/1/6 324/1/6 326/1/6
f 326/1/6 324/1/6 327/1/6
f 321/1/6 325/1/6 329/1/6
f 325/2/6 326/2/6 329/2/6
f 326/1/6 327/1/6 330/1/6
f 329/2/6 326/2/6 330/2/6
f 327/2/6 328/2/6 331/2/6
f 330/1/6 327/1/6 331/1/6
f 331/2/6 328/2/6 332/2/6
f 321/1/6 329/1/6 333/1/6
f 333/1/6 329/1/6 334/1/6
f 330/1/6 331/1/6 335/1/6
f 335/1/6 331/1/6 336/1/6
