# MagicaVoxel @ Ephtracy

# group
o 

# material
mtllib wallpaper_wall_one_doorway.mtl
usemtl palette

# normals
vn -1 0 0
vn 1 0 0
vn 0 0 1
vn 0 0 -1
vn 0 -1 0
vn 0 1 0

# texcoords
vt 0.208984 0.5
vt 0.318359 0.5
vt 0.478516 0.5
vt 0.919922 0.5

# verts
v 0 2 0
v 0 2 -0.5
v 0 6.4 0
v 0 6.4 -0.1
v 0 6.4 -0.4
v 0 6.4 -0.5
v 0 6.5 0
v 0 6.5 -0.1
v 0 6.5 -0.4
v 0 6.5 -0.5
v 0 6.6 0
v 0 6.6 -0.1
v 0 6.6 -0.3
v 0 6.6 -0.4
v 0 6.6 -0.5
v 0 6.7 -0.1
v 0 6.7 -0.2
v 0 6.7 -0.3
v 0 6.7 -0.4
v 0 6.8 0
v 0 6.8 -0.1
v 0 6.8 -0.2
v 0 6.8 -0.4
v 0 6.8 -0.5
v 0 6.9 0
v 0 6.9 -0.1
v 0 6.9 -0.4
v 0 6.9 -0.5
v 0 7 0
v 0 7 -0.1
v 0 7 -0.4
v 0 7 -0.5
v 0 7.1 0
v 0 7.1 -0.5
v 2.1 2 0
v 2.1 2 -0.5
v 2.1 6.3 0
v 2.1 6.3 -0.5
v 0.1 2 0
v 0.1 2 -0.5
v 0.1 6.3 0
v 0.1 6.3 -0.5
v 2.2 2 0
v 2.2 2 -0.5
v 2.2 6.4 0
v 2.2 6.4 -0.1
v 2.2 6.4 -0.4
v 2.2 6.4 -0.5
v 2.2 6.5 0
v 2.2 6.5 -0.1
v 2.2 6.5 -0.4
v 2.2 6.5 -0.5
v 2.2 6.6 0
v 2.2 6.6 -0.1
v 2.2 6.6 -0.2
v 2.2 6.6 -0.4
v 2.2 6.6 -0.5
v 2.2 6.7 -0.1
v 2.2 6.7 -0.2
v 2.2 6.7 -0.3
v 2.2 6.7 -0.4
v 2.2 6.8 0
v 2.2 6.8 -0.1
v 2.2 6.8 -0.3
v 2.2 6.8 -0.4
v 2.2 6.8 -0.5
v 2.2 6.9 0
v 2.2 6.9 -0.1
v 2.2 6.9 -0.4
v 2.2 6.9 -0.5
v 2.2 7 0
v 2.2 7 -0.1
v 2.2 7 -0.4
v 2.2 7 -0.5
v 2.2 7.1 0
v 2.2 7.1 -0.5
v 0 2 0
v 0 6.4 0
v 0 6.5 0
v 0 6.6 0
v 0 6.8 0
v 0 6.9 0
v 0 7 0
v 0 7.1 0
v 0.1 2 0
v 0.1 6.3 0
v 2.1 2 0
v 2.1 6.3 0
v 2.2 2 0
v 2.2 6.4 0
v 2.2 6.5 0
v 2.2 6.6 0
v 2.2 6.8 0
v 2.2 6.9 0
v 2.2 7 0
v 2.2 7.1 0
v 0 6.4 -0.1
v 0 6.5 -0.1
v 0 6.6 -0.1
v 0 6.7 -0.1
v 0 6.8 -0.1
v 0 6.9 -0.1
v 0 7 -0.1
v 0.1 6.6 -0.1
v 0.1 6.7 -0.1
v 0.1 6.8 -0.1
v 0.2 6.6 -0.1
v 0.2 6.7 -0.1
v 0.2 6.8 -0.1
v 0.3 6.6 -0.1
v 0.3 6.7 -0.1
v 0.3 6.8 -0.1
v 0.4 6.6 -0.1
v 0.4 6.7 -0.1
v 0.4 6.8 -0.1
v 0.5 6.6 -0.1
v 0.5 6.7 -0.1
v 0.5 6.8 -0.1
v 0.6 6.6 -0.1
v 0.6 6.7 -0.1
v 0.6 6.8 -0.1
v 0.7 6.6 -0.1
v 0.7 6.7 -0.1
v 0.7 6.8 -0.1
v 0.8 6.6 -0.1
v 0.8 6.7 -0.1
v 0.8 6.8 -0.1
v 0.9 6.6 -0.1
v 0.9 6.7 -0.1
v 0.9 6.8 -0.1
v 1 6.6 -0.1
v 1 6.7 -0.1
v 1 6.8 -0.1
v 1.1 6.6 -0.1
v 1.1 6.7 -0.1
v 1.1 6.8 -0.1
v 1.2 6.6 -0.1
v 1.2 6.7 -0.1
v 1.2 6.8 -0.1
v 1.3 6.6 -0.1
v 1.3 6.7 -0.1
v 1.3 6.8 -0.1
v 1.4 6.6 -0.1
v 1.4 6.7 -0.1
v 1.4 6.8 -0.1
v 1.5 6.6 -0.1
v 1.5 6.7 -0.1
v 1.5 6.8 -0.1
v 1.6 6.6 -0.1
v 1.6 6.7 -0.1
v 1.6 6.8 -0.1
v 1.7 6.6 -0.1
v 1.7 6.7 -0.1
v 1.7 6.8 -0.1
v 1.8 6.6 -0.1
v 1.8 6.7 -0.1
v 1.8 6.8 -0.1
v 1.9 6.6 -0.1
v 1.9 6.7 -0.1
v 1.9 6.8 -0.1
v 2 6.6 -0.1
v 2 6.7 -0.1
v 2 6.8 -0.1
v 2.1 6.6 -0.1
v 2.1 6.7 -0.1
v 2.1 6.8 -0.1
v 2.2 6.4 -0.1
v 2.2 6.5 -0.1
v 2.2 6.6 -0.1
v 2.2 6.7 -0.1
v 2.2 6.8 -0.1
v 2.2 6.9 -0.1
v 2.2 7 -0.1
v 0 6.4 -0.4
v 0 6.5 -0.4
v 0 6.6 -0.4
v 0 6.7 -0.4
v 0 6.8 -0.4
v 0 6.9 -0.4
v 0 7 -0.4
v 0.1 6.6 -0.4
v 0.1 6.7 -0.4
v 0.1 6.8 -0.4
v 0.2 6.6 -0.4
v 0.2 6.7 -0.4
v 0.2 6.8 -0.4
v 0.3 6.6 -0.4
v 0.3 6.7 -0.4
v 0.3 6.8 -0.4
v 0.4 6.6 -0.4
v 0.4 6.7 -0.4
v 0.4 6.8 -0.4
v 0.5 6.6 -0.4
v 0.5 6.7 -0.4
v 0.5 6.8 -0.4
v 0.6 6.6 -0.4
v 0.6 6.7 -0.4
v 0.6 6.8 -0.4
v 0.7 6.6 -0.4
v 0.7 6.7 -0.4
v 0.7 6.8 -0.4
v 0.8 6.6 -0.4
v 0.8 6.7 -0.4
v 0.8 6.8 -0.4
v 0.9 6.6 -0.4
v 0.9 6.7 -0.4
v 0.9 6.8 -0.4
v 1 6.6 -0.4
v 1 6.7 -0.4
v 1 6.8 -0.4
v 1.1 6.6 -0.4
v 1.1 6.7 -0.4
v 1.1 6.8 -0.4
v 1.2 6.6 -0.4
v 1.2 6.7 -0.4
v 1.2 6.8 -0.4
v 1.3 6.6 -0.4
v 1.3 6.7 -0.4
v 1.3 6.8 -0.4
v 1.4 6.6 -0.4
v 1.4 6.7 -0.4
v 1.4 6.8 -0.4
v 1.5 6.6 -0.4
v 1.5 6.7 -0.4
v 1.5 6.8 -0.4
v 1.6 6.6 -0.4
v 1.6 6.7 -0.4
v 1.6 6.8 -0.4
v 1.7 6.6 -0.4
v 1.7 6.7 -0.4
v 1.7 6.8 -0.4
v 1.8 6.6 -0.4
v 1.8 6.7 -0.4
v 1.8 6.8 -0.4
v 1.9 6.6 -0.4
v 1.9 6.7 -0.4
v 1.9 6.8 -0.4
v 2 6.6 -0.4
v 2 6.7 -0.4
v 2 6.8 -0.4
v 2.1 6.6 -0.4
v 2.1 6.7 -0.4
v 2.1 6.8 -0.4
v 2.2 6.4 -0.4
v 2.2 6.5 -0.4
v 2.2 6.6 -0.4
v 2.2 6.7 -0.4
v 2.2 6.8 -0.4
v 2.2 6.9 -0.4
v 2.2 7 -0.4
v 0 2 -0.5
v 0 6.4 -0.5
v 0 6.5 -0.5
v 0 6.6 -0.5
v 0 6.8 -0.5
v 0 6.9 -0.5
v 0 7 -0.5
v 0 7.1 -0.5
v 0.1 2 -0.5
v 0.1 6.3 -0.5
v 2.1 2 -0.5
v 2.1 6.3 -0.5
v 2.2 2 -0.5
v 2.2 6.4 -0.5
v 2.2 6.5 -0.5
v 2.2 6.6 -0.5
v 2.2 6.8 -0.5
v 2.2 6.9 -0.5
v 2.2 7 -0.5
v 2.2 7.1 -0.5
v 0 2 0
v 0.1 2 0
v 2.1 2 0
v 2.2 2 0
v 0 2 -0.5
v 0.1 2 -0.5
v 2.1 2 -0.5
v 2.2 2 -0.5
v 0.1 6.3 0
v 2.1 6.3 0
v 0.1 6.3 -0.5
v 2.1 6.3 -0.5
v 0 6.5 0
v 2.2 6.5 0
v 0 6.5 -0.1
v 2.2 6.5 -0.1
v 0 6.5 -0.4
v 2.2 6.5 -0.4
v 0 6.5 -0.5
v 2.2 6.5 -0.5
v 0 6.8 0
v 2.2 6.8 0
v 0 6.8 -0.1
v 0.1 6.8 -0.1
v 0.2 6.8 -0.1
v 0.3 6.8 -0.1
v 0.4 6.8 -0.1
v 0.5 6.8 -0.1
v 0.6 6.8 -0.1
v 0.7 6.8 -0.1
v 0.8 6.8 -0.1
v 0.9 6.8 -0.1
v 1 6.8 -0.1
v 1.1 6.8 -0.1
v 1.2 6.8 -0.1
v 1.3 6.8 -0.1
v 1.4 6.8 -0.1
v 1.5 6.8 -0.1
v 1.6 6.8 -0.1
v 1.7 6.8 -0.1
v 1.8 6.8 -0.1
v 1.9 6.8 -0.1
v 2 6.8 -0.1
v 2.1 6.8 -0.1
v 2.2 6.8 -0.1
v 0 6.8 -0.4
v 0.1 6.8 -0.4
v 0.2 6.8 -0.4
v 0.3 6.8 -0.4
v 0.4 6.8 -0.4
v 0.5 6.8 -0.4
v 0.6 6.8 -0.4
v 0.7 6.8 -0.4
v 0.8 6.8 -0.4
v 0.9 6.8 -0.4
v 1 6.8 -0.4
v 1.1 6.8 -0.4
v 1.2 6.8 -0.4
v 1.3 6.8 -0.4
v 1.4 6.8 -0.4
v 1.5 6.8 -0.4
v 1.6 6.8 -0.4
v 1.7 6.8 -0.4
v 1.8 6.8 -0.4
v 1.9 6.8 -0.4
v 2 6.8 -0.4
v 2.1 6.8 -0.4
v 2.2 6.8 -0.4
v 0 6.8 -0.5
v 2.2 6.8 -0.5
v 0 7 0
v 2.2 7 0
v 0 7 -0.1
v 2.2 7 -0.1
v 0 7 -0.4
v 2.2 7 -0.4
v 0 7 -0.5
v 2.2 7 -0.5
v 0 6.4 0
v 2.2 6.4 0
v 0 6.4 -0.1
v 2.2 6.4 -0.1
v 0 6.4 -0.4
v 2.2 6.4 -0.4
v 0 6.4 -0.5
v 2.2 6.4 -0.5
v 0 6.6 0
v 2.2 6.6 0
v 0 6.6 -0.1
v 0.1 6.6 -0.1
v 0.2 6.6 -0.1
v 0.3 6.6 -0.1
v 0.4 6.6 -0.1
v 0.5 6.6 -0.1
v 0.6 6.6 -0.1
v 0.7 6.6 -0.1
v 0.8 6.6 -0.1
v 0.9 6.6 -0.1
v 1 6.6 -0.1
v 1.1 6.6 -0.1
v 1.2 6.6 -0.1
v 1.3 6.6 -0.1
v 1.4 6.6 -0.1
v 1.5 6.6 -0.1
v 1.6 6.6 -0.1
v 1.7 6.6 -0.1
v 1.8 6.6 -0.1
v 1.9 6.6 -0.1
v 2 6.6 -0.1
v 2.1 6.6 -0.1
v 2.2 6.6 -0.1
v 0 6.6 -0.4
v 0.1 6.6 -0.4
v 0.2 6.6 -0.4
v 0.3 6.6 -0.4
v 0.4 6.6 -0.4
v 0.5 6.6 -0.4
v 0.6 6.6 -0.4
v 0.7 6.6 -0.4
v 0.8 6.6 -0.4
v 0.9 6.6 -0.4
v 1 6.6 -0.4
v 1.1 6.6 -0.4
v 1.2 6.6 -0.4
v 1.3 6.6 -0.4
v 1.4 6.6 -0.4
v 1.5 6.6 -0.4
v 1.6 6.6 -0.4
v 1.7 6.6 -0.4
v 1.8 6.6 -0.4
v 1.9 6.6 -0.4
v 2 6.6 -0.4
v 2.1 6.6 -0.4
v 2.2 6.6 -0.4
v 0 6.6 -0.5
v 2.2 6.6 -0.5
v 0 6.9 0
v 2.2 6.9 0
v 0 6.9 -0.1
v 2.2 6.9 -0.1
v 0 6.9 -0.4
v 2.2 6.9 -0.4
v 0 6.9 -0.5
v 2.2 6.9 -0.5
v 0 7.1 0
v 2.2 7.1 0
v 0 7.1 -0.5
v 2.2 7.1 -0.5

# faces
f 3/2/1 2/2/1 1/2/1
f 4/2/1 2/2/1 3/2/1
f 5/2/1 2/2/1 4/2/1
f 6/2/1 2/2/1 5/2/1
f 8/2/1 5/2/1 4/2/1
f 9/2/1 5/2/1 8/2/1
f 11/2/1 8/2/1 7/2/1
f 11/2/1 10/2/1 9/2/1
f 11/2/1 9/2/1 8/2/1
f 12/2/1 10/2/1 11/2/1
f 13/2/1 10/2/1 12/2/1
f 14/2/1 10/2/1 13/2/1
f 15/2/1 10/2/1 14/2/1
f 16/3/1 13/3/1 12/3/1
f 17/3/1 13/3/1 16/3/1
f 18/1/1 14/1/1 13/1/1
f 18/3/1 13/3/1 17/3/1
f 19/1/1 14/1/1 18/1/1
f 21/1/1 17/1/1 16/1/1
f 22/3/1 18/3/1 17/3/1
f 22/3/1 19/3/1 18/3/1
f 22/1/1 17/1/1 21/1/1
f 23/3/1 19/3/1 22/3/1
f 25/2/1 23/2/1 22/2/1
f 25/2/1 24/2/1 23/2/1
f 25/2/1 22/2/1 21/2/1
f 25/2/1 21/2/1 20/2/1
f 26/2/1 24/2/1 25/2/1
f 27/2/1 24/2/1 26/2/1
f 28/2/1 24/2/1 27/2/1
f 30/2/1 27/2/1 26/2/1
f 31/2/1 27/2/1 30/2/1
f 33/2/1 30/2/1 29/2/1
f 33/2/1 32/2/1 31/2/1
f 33/2/1 31/2/1 30/2/1
f 34/2/1 32/2/1 33/2/1
f 37/2/1 36/2/1 35/2/1
f 38/2/1 36/2/1 37/2/1
f 39/2/2 40/2/2 41/2/2
f 41/2/2 40/2/2 42/2/2
f 43/2/2 44/2/2 45/2/2
f 45/2/2 44/2/2 46/2/2
f 46/2/2 44/2/2 47/2/2
f 47/2/2 44/2/2 48/2/2
f 46/2/2 47/2/2 50/2/2
f 50/2/2 47/2/2 51/2/2
f 49/2/2 50/2/2 53/2/2
f 51/2/2 52/2/2 53/2/2
f 50/2/2 51/2/2 53/2/2
f 53/2/2 52/2/2 54/2/2
f 54/2/2 52/2/2 55/2/2
f 55/2/2 52/2/2 56/2/2
f 56/2/2 52/2/2 57/2/2
f 54/1/2 55/1/2 58/1/2
f 55/3/2 56/3/2 59/3/2
f 58/1/2 55/1/2 59/1/2
f 59/3/2 56/3/2 60/3/2
f 60/3/2 56/3/2 61/3/2
f 58/3/2 59/3/2 63/3/2
f 59/3/2 60/3/2 63/3/2
f 60/1/2 61/1/2 64/1/2
f 63/3/2 60/3/2 64/3/2
f 64/1/2 61/1/2 65/1/2
f 64/2/2 65/2/2 67/2/2
f 65/2/2 66/2/2 67/2/2
f 63/2/2 64/2/2 67/2/2
f 62/2/2 63/2/2 67/2/2
f 67/2/2 66/2/2 68/2/2
f 68/2/2 66/2/2 69/2/2
f 69/2/2 66/2/2 70/2/2
f 68/2/2 69/2/2 72/2/2
f 72/2/2 69/2/2 73/2/2
f 71/2/2 72/2/2 75/2/2
f 73/2/2 74/2/2 75/2/2
f 72/2/2 73/2/2 75/2/2
f 75/2/2 74/2/2 76/2/2
f 85/2/3 78/2/3 77/2/3
f 86/2/3 78/2/3 85/2/3
f 88/2/3 78/2/3 86/2/3
f 89/2/3 88/2/3 87/2/3
f 90/2/3 78/2/3 88/2/3
f 90/2/3 88/2/3 89/2/3
f 91/2/3 80/2/3 79/2/3
f 92/2/3 80/2/3 91/2/3
f 93/2/3 82/2/3 81/2/3
f 94/2/3 82/2/3 93/2/3
f 95/2/3 84/2/3 83/2/3
f 96/2/3 84/2/3 95/2/3
f 104/3/3 100/3/3 99/3/3
f 105/1/3 101/1/3 100/1/3
f 105/3/3 100/3/3 104/3/3
f 106/1/3 101/1/3 105/1/3
f 107/1/3 105/1/3 104/1/3
f 108/3/3 106/3/3 105/3/3
f 108/1/3 105/1/3 107/1/3
f 109/3/3 106/3/3 108/3/3
f 110/3/3 108/3/3 107/3/3
f 111/1/3 109/1/3 108/1/3
f 111/3/3 108/3/3 110/3/3
f 112/1/3 109/1/3 111/1/3
f 113/1/3 111/1/3 110/1/3
f 114/3/3 112/3/3 111/3/3
f 114/1/3 111/1/3 113/1/3
f 115/3/3 112/3/3 114/3/3
f 116/3/3 114/3/3 113/3/3
f 117/1/3 115/1/3 114/1/3
f 117/3/3 114/3/3 116/3/3
f 118/1/3 115/1/3 117/1/3
f 119/1/3 117/1/3 116/1/3
f 120/3/3 118/3/3 117/3/3
f 120/1/3 117/1/3 119/1/3
f 121/3/3 118/3/3 120/3/3
f 122/3/3 120/3/3 119/3/3
f 123/1/3 121/1/3 120/1/3
f 123/3/3 120/3/3 122/3/3
f 124/1/3 121/1/3 123/1/3
f 125/1/3 123/1/3 122/1/3
f 126/3/3 124/3/3 123/3/3
f 126/1/3 123/1/3 125/1/3
f 127/3/3 124/3/3 126/3/3
f 128/3/3 126/3/3 125/3/3
f 129/1/3 127/1/3 126/1/3
f 129/3/3 126/3/3 128/3/3
f 130/1/3 127/1/3 129/1/3
f 131/1/3 129/1/3 128/1/3
f 132/3/3 130/3/3 129/3/3
f 132/1/3 129/1/3 131/1/3
f 133/3/3 130/3/3 132/3/3
f 134/3/3 132/3/3 131/3/3
f 135/1/3 133/1/3 132/1/3
f 135/3/3 132/3/3 134/3/3
f 136/1/3 133/1/3 135/1/3
f 137/1/3 135/1/3 134/1/3
f 138/3/3 136/3/3 135/3/3
f 138/1/3 135/1/3 137/1/3
f 139/3/3 136/3/3 138/3/3
f 140/3/3 138/3/3 137/3/3
f 141/1/3 139/1/3 138/1/3
f 141/3/3 138/3/3 140/3/3
f 142/1/3 139/1/3 141/1/3
f 143/1/3 141/1/3 140/1/3
f 144/3/3 142/3/3 141/3/3
f 144/1/3 141/1/3 143/1/3
f 145/3/3 142/3/3 144/3/3
f 146/3/3 144/3/3 143/3/3
f 147/1/3 145/1/3 144/1/3
f 147/3/3 144/3/3 146/3/3
f 148/1/3 145/1/3 147/1/3
f 149/1/3 147/1/3 146/1/3
f 150/3/3 148/3/3 147/3/3
f 150/1/3 147/1/3 149/1/3
f 151/3/3 148/3/3 150/3/3
f 152/3/3 150/3/3 149/3/3
f 153/1/3 151/1/3 150/1/3
f 153/3/3 150/3/3 152/3/3
f 154/1/3 151/1/3 153/1/3
f 155/1/3 153/1/3 152/1/3
f 156/3/3 154/3/3 153/3/3
f 156/1/3 153/1/3 155/1/3
f 157/3/3 154/3/3 156/3/3
f 158/3/3 156/3/3 155/3/3
f 159/1/3 157/1/3 156/1/3
f 159/3/3 156/3/3 158/3/3
f 160/1/3 157/1/3 159/1/3
f 161/1/3 159/1/3 158/1/3
f 162/3/3 160/3/3 159/3/3
f 162/1/3 159/1/3 161/1/3
f 163/3/3 160/3/3 162/3/3
f 164/3/3 162/3/3 161/3/3
f 165/1/3 163/1/3 162/1/3
f 165/3/3 162/3/3 164/3/3
f 166/1/3 163/1/3 165/1/3
f 167/2/3 98/2/3 97/2/3
f 168/2/3 98/2/3 167/2/3
f 169/1/3 165/1/3 164/1/3
f 170/3/3 166/3/3 165/3/3
f 170/1/3 165/1/3 169/1/3
f 171/3/3 166/3/3 170/3/3
f 172/2/3 103/2/3 102/2/3
f 173/2/3 103/2/3 172/2/3
f 176/1/4 177/1/4 181/1/4
f 177/3/4 178/3/4 182/3/4
f 181/1/4 177/1/4 182/1/4
f 182/3/4 178/3/4 183/3/4
f 181/3/4 182/3/4 184/3/4
f 182/1/4 183/1/4 185/1/4
f 184/3/4 182/3/4 185/3/4
f 185/1/4 183/1/4 186/1/4
f 184/1/4 185/1/4 187/1/4
f 185/3/4 186/3/4 188/3/4
f 187/1/4 185/1/4 188/1/4
f 188/3/4 186/3/4 189/3/4
f 187/3/4 188/3/4 190/3/4
f 188/1/4 189/1/4 191/1/4
f 190/3/4 188/3/4 191/3/4
f 191/1/4 189/1/4 192/1/4
f 190/1/4 191/1/4 193/1/4
f 191/3/4 192/3/4 194/3/4
f 193/1/4 191/1/4 194/1/4
f 194/3/4 192/3/4 195/3/4
f 193/3/4 194/3/4 196/3/4
f 194/1/4 195/1/4 197/1/4
f 196/3/4 194/3/4 197/3/4
f 197/1/4 195/1/4 198/1/4
f 196/1/4 197/1/4 199/1/4
f 197/3/4 198/3/4 200/3/4
f 199/1/4 197/1/4 200/1/4
f 200/3/4 198/3/4 201/3/4
f 199/3/4 200/3/4 202/3/4
f 200/1/4 201/1/4 203/1/4
f 202/3/4 200/3/4 203/3/4
f 203/1/4 201/1/4 204/1/4
f 202/1/4 203/1/4 205/1/4
f 203/3/4 204/3/4 206/3/4
f 205/1/4 203/1/4 206/1/4
f 206/3/4 204/3/4 207/3/4
f 205/3/4 206/3/4 208/3/4
f 206/1/4 207/1/4 209/1/4
f 208/3/4 206/3/4 209/3/4
f 209/1/4 207/1/4 210/1/4
f 208/1/4 209/1/4 211/1/4
f 209/3/4 210/3/4 212/3/4
f 211/1/4 209/1/4 212/1/4
f 212/3/4 210/3/4 213/3/4
f 211/3/4 212/3/4 214/3/4
f 212/1/4 213/1/4 215/1/4
f 214/3/4 212/3/4 215/3/4
f 215/1/4 213/1/4 216/1/4
f 214/1/4 215/1/4 217/1/4
f 215/3/4 216/3/4 218/3/4
f 217/1/4 215/1/4 218/1/4
f 218/3/4 216/3/4 219/3/4
f 217/3/4 218/3/4 220/3/4
f 218/1/4 219/1/4 221/1/4
f 220/3/4 218/3/4 221/3/4
f 221/1/4 219/1/4 222/1/4
f 220/1/4 221/1/4 223/1/4
f 221/3/4 222/3/4 224/3/4
f 223/1/4 221/1/4 224/1/4
f 224/3/4 222/3/4 225/3/4
f 223/3/4 224/3/4 226/3/4
f 224/1/4 225/1/4 227/1/4
f 226/3/4 224/3/4 227/3/4
f 227/1/4 225/1/4 228/1/4
f 226/1/4 227/1/4 229/1/4
f 227/3/4 228/3/4 230/3/4
f 229/1/4 227/1/4 230/1/4
f 230/3/4 228/3/4 231/3/4
f 229/3/4 230/3/4 232/3/4
f 230/1/4 231/1/4 233/1/4
f 232/3/4 230/3/4 233/3/4
f 233/1/4 231/1/4 234/1/4
f 232/1/4 233/1/4 235/1/4
f 233/3/4 234/3/4 236/3/4
f 235/1/4 233/1/4 236/1/4
f 236/3/4 234/3/4 237/3/4
f 235/3/4 236/3/4 238/3/4
f 236/1/4 237/1/4 239/1/4
f 238/3/4 236/3/4 239/3/4
f 239/1/4 237/1/4 240/1/4
f 238/1/4 239/1/4 241/1/4
f 239/3/4 240/3/4 242/3/4
f 241/1/4 239/1/4 242/1/4
f 242/3/4 240/3/4 243/3/4
f 174/2/4 175/2/4 244/2/4
f 244/2/4 175/2/4 245/2/4
f 241/3/4 242/3/4 246/3/4
f 242/1/4 243/1/4 247/1/4
f 246/3/4 242/3/4 247/3/4
f 247/1/4 243/1/4 248/1/4
f 179/2/4 180/2/4 249/2/4
f 249/2/4 180/2/4 250/2/4
f 251/2/4 252/2/4 259/2/4
f 259/2/4 252/2/4 260/2/4
f 260/2/4 252/2/4 262/2/4
f 261/2/4 262/2/4 263/2/4
f 262/2/4 252/2/4 264/2/4
f 263/2/4 262/2/4 264/2/4
f 253/2/4 254/2/4 265/2/4
f 265/2/4 254/2/4 266/2/4
f 255/2/4 256/2/4 267/2/4
f 267/2/4 256/2/4 268/2/4
f 257/2/4 258/2/4 269/2/4
f 269/2/4 258/2/4 270/2/4
f 275/2/5 272/2/5 271/2/5
f 276/2/5 272/2/5 275/2/5
f 277/2/5 274/2/5 273/2/5
f 278/2/5 274/2/5 277/2/5
f 281/2/5 280/2/5 279/2/5
f 282/2/5 280/2/5 281/2/5
f 285/2/5 284/2/5 283/2/5
f 286/2/5 284/2/5 285/2/5
f 289/2/5 288/2/5 287/2/5
f 290/2/5 288/2/5 289/2/5
f 293/2/5 292/2/5 291/2/5
f 294/2/5 292/2/5 293/2/5
f 295/2/5 292/2/5 294/2/5
f 296/2/5 292/2/5 295/2/5
f 297/2/5 292/2/5 296/2/5
f 298/2/5 292/2/5 297/2/5
f 299/2/5 292/2/5 298/2/5
f 300/2/5 292/2/5 299/2/5
f 301/2/5 292/2/5 300/2/5
f 302/2/5 292/2/5 301/2/5
f 303/2/5 292/2/5 302/2/5
f 304/2/5 292/2/5 303/2/5
f 305/2/5 292/2/5 304/2/5
f 306/2/5 292/2/5 305/2/5
f 307/2/5 292/2/5 306/2/5
f 308/2/5 292/2/5 307/2/5
f 309/2/5 292/2/5 308/2/5
f 310/2/5 292/2/5 309/2/5
f 311/2/5 292/2/5 310/2/5
f 312/2/5 292/2/5 311/2/5
f 313/2/5 292/2/5 312/2/5
f 314/2/5 292/2/5 313/2/5
f 315/2/5 292/2/5 314/2/5
f 339/2/5 317/2/5 316/2/5
f 339/2/5 338/2/5 337/2/5
f 339/2/5 337/2/5 336/2/5
f 339/2/5 336/2/5 335/2/5
f 339/2/5 335/2/5 334/2/5
f 339/2/5 334/2/5 333/2/5
f 339/2/5 333/2/5 332/2/5
f 339/2/5 332/2/5 331/2/5
f 339/2/5 331/2/5 330/2/5
f 339/2/5 330/2/5 329/2/5
f 339/2/5 329/2/5 328/2/5
f 339/2/5 328/2/5 327/2/5
f 339/2/5 327/2/5 326/2/5
f 339/2/5 326/2/5 325/2/5
f 339/2/5 325/2/5 324/2/5
f 339/2/5 324/2/5 323/2/5
f 339/2/5 323/2/5 322/2/5
f 339/2/5 322/2/5 321/2/5
f 339/2/5 321/2/5 320/2/5
f 339/2/5 320/2/5 319/2/5
f 339/2/5 319/2/5 318/2/5
f 339/2/5 318/2/5 317/2/5
f 340/2/5 338/2/5 339/2/5
f 343/2/5 342/2/5 341/2/5
f 344/2/5 342/2/5 343/2/5
f 347/2/5 346/2/5 345/2/5
f 348/2/5 346/2/5 347/2/5
f 349/2/6 350/2/6 351/2/6
f 351/2/6 350/2/6 352/2/6
f 353/2/6 354/2/6 355/2/6
f 355/2/6 354/2/6 356/2/6
f 357/2/6 358/2/6 359/2/6
f 359/2/6 358/2/6 360/2/6
f 360/2/6 358/2/6 361/2/6
f 361/2/6 358/2/6 362/2/6
f 362/2/6 358/2/6 363/2/6
f 363/2/6 358/2/6 364/2/6
f 364/2/6 358/2/6 365/2/6
f 365/2/6 358/2/6 366/2/6
f 366/2/6 358/2/6 367/2/6
f 367/2/6 358/2/6 368/2/6
f 368/2/6 358/2/6 369/2/6
f 369/2/6 358/2/6 370/2/6
f 370/2/6 358/2/6 371/2/6
f 371/2/6 358/2/6 372/2/6
f 372/2/6 358/2/6 373/2/6
f 373/2/6 358/2/6 374/2/6
f 374/2/6 358/2/6 375/2/6
f 375/2/6 358/2/6 376/2/6
f 376/2/6 358/2/6 377/2/6
f 377/2/6 358/2/6 378/2/6
f 378/2/6 358/2/6 379/2/6
f 379/2/6 358/2/6 380/2/6
f 380/2/6 358/2/6 381/2/6
f 382/2/6 383/2/6 405/2/6
f 403/2/6 404/2/6 405/2/6
f 402/2/6 403/2/6 405/2/6
f 401/2/6 402/2/6 405/2/6
f 400/2/6 401/2/6 405/2/6
f 399/2/6 400/2/6 405/2/6
f 398/2/6 399/2/6 405/2/6
f 397/2/6 398/2/6 405/2/6
f 396/2/6 397/2/6 405/2/6
f 395/2/6 396/2/6 405/2/6
f 394/2/6 395/2/6 405/2/6
f 393/2/6 394/2/6 405/2/6
f 392/2/6 393/2/6 405/2/6
f 391/2/6 392/2/6 405/2/6
f 390/2/6 391/2/6 405/2/6
f 389/2/6 390/2/6 405/2/6
f 388/2/6 389/2/6 405/2/6
f 387/2/6 388/2/6 405/2/6
f 386/2/6 387/2/6 405/2/6
f 385/2/6 386/2/6 405/2/6
f 384/2/6 385/2/6 405/2/6
f 383/2/6 384/2/6 405/2/6
f 405/2/6 404/2/6 406/2/6
f 407/2/6 408/2/6 409/2/6
f 409/2/6 408/2/6 410/2/6
f 411/2/6 412/2/6 413/2/6
f 413/2/6 412/2/6 414/2/6
f 415/2/6 416/2/6 417/2/6
f 417/2/6 416/2/6 418/2/6
